<svg width="12" height="12" viewBox="0 0 12 12" fill="none" xmlns="http://www.w3.org/2000/svg">
<path fill-rule="evenodd" clip-rule="evenodd" d="M4.05734 0H7.12783C7.55974 0 7.91111 0.351375 7.91111 0.783281V1.80156H11.1854V2.7415H10.1901L9.41308 11.5711C9.39194 11.8137 9.1886 12 8.94499 12H2.22452C1.98094 12 1.77773 11.8139 1.75643 11.5712L0.979429 2.7415H0V1.80156H3.27406V0.783281C3.27406 0.351375 3.62543 0 4.05734 0ZM4.21399 1.80156H6.97118V0.939938H4.21399V1.80156ZM8.51451 11.0601H2.65488L1.92298 2.7415H9.24658L8.51451 11.0601ZM4.24535 4.10274L4.449 9.6641L3.50969 9.69855L3.30602 4.13722L4.24535 4.10274ZM7.87993 4.13729L6.9406 4.10284L6.73695 9.66418L7.67628 9.6985L7.87993 4.13729ZM6.06236 4.12009H5.12243V9.68147H6.06236V4.12009Z" fill="currentColor"/>
</svg>
