<svg width="3301" height="1011" viewBox="0 0 3301 1011" fill="none" xmlns="http://www.w3.org/2000/svg">
<g opacity="0.1">
<path d="M2722.62 1010.29C2729.6 987.954 2736.57 965.618 2743.55 943.281C2767.47 866.721 2778.18 789.855 2748.67 721.436C2715.9 645.486 2642.59 600.175 2561.99 607.395C2493.6 613.521 2422.52 626.232 2370.75 576.239C2331.55 538.388 2301.25 490.505 2243 481.976C2184.81 473.457 2123.14 512.552 2073.28 558.173C2023.42 603.794 1978.44 658.144 1922.5 692.286C1875.85 720.755 1823.14 733.443 1774.24 727.973C1660.28 715.223 1574.77 608.893 1457.87 615.704C1392.02 619.54 1166.74 346.532 1119.85 595.845C1044.73 995.275 442.055 795.651 382.467 848.606" stroke="url(#paint0_radial)"/>
<path d="M2736.72 991.576C2742.45 970.187 2748.1 948.372 2753.88 926.581C2773.71 851.799 2781.38 778.222 2750.29 707.576C2717.29 632.586 2644.85 588.179 2565.1 594.166C2496.3 599.33 2425.23 609.792 2371.42 562.4C2329.75 525.7 2296.2 483.626 2235.45 476.334C2175.89 469.184 2112.46 506.224 2062.02 549.562C2011.77 592.732 1967.73 645.735 1911.48 677.276C1864.01 703.893 1807.13 715.61 1759.43 710.274C1646.96 698.048 1561.98 592.345 1447.01 602.089C1378.26 607.915 1156.4 344.825 1109.52 588.934C1034.25 980.148 432 777.703 373.163 831.976" stroke="url(#paint1_radial)"/>
<path d="M2750.82 972.861C2755.31 952.419 2759.62 931.131 2764.2 909.881C2779.95 836.892 2784.59 766.591 2751.92 693.715C2718.72 619.674 2647.11 576.157 2568.21 580.937C2498.99 585.131 2427.8 593.375 2372.08 548.561C2327.85 512.986 2291.17 476.726 2227.91 470.692C2166.98 464.88 2101.81 499.876 2050.75 540.951C2000.14 581.658 1956.96 633.314 1900.47 662.265C1852.1 687.051 1791.14 697.631 1744.61 692.575C1633.68 680.521 1549.14 576.106 1436.15 588.474C1364.41 596.326 1146.07 343.118 1099.19 582.022C1023.76 965.022 421.945 759.756 363.859 815.346" stroke="url(#paint2_radial)"/>
<path d="M2764.92 954.147C2768.16 934.652 2771.14 913.897 2774.53 893.181C2786.17 822.004 2787.81 754.959 2753.54 679.855C2720.18 606.749 2649.35 564.11 2571.32 567.709C2501.67 570.921 2430.26 576.996 2372.75 534.723C2325.87 500.259 2286.15 469.805 2220.37 465.05C2158.08 460.549 2091.21 493.507 2039.48 532.341C1988.56 570.577 1946.11 620.873 1889.45 647.255C1840.12 670.223 1775.14 679.728 1729.8 674.877C1620.38 663.17 1536.27 560.144 1425.28 574.859C1350.48 584.775 1135.73 341.411 1088.86 575.111C1013.28 949.896 411.889 741.809 354.555 798.716" stroke="url(#paint3_radial)"/>
<path d="M2779.02 935.432C2781.02 916.885 2782.66 896.668 2784.85 876.481C2792.4 807.138 2791.05 743.327 2755.17 665.994C2721.68 593.812 2651.58 552.035 2574.43 554.479C2504.33 556.7 2432.6 560.666 2373.42 520.884C2323.8 487.532 2281.14 462.862 2212.82 459.408C2149.19 456.191 2080.64 487.122 2028.22 523.73C1977.01 559.491 1935.19 608.402 1878.44 632.244C1828.08 653.402 1759.14 661.826 1714.98 657.178C1607.09 645.819 1523.39 544.43 1414.42 561.243C1336.5 573.266 1125.4 339.703 1078.53 568.2C1002.79 934.77 401.834 723.861 345.251 782.086" stroke="url(#paint4_radial)"/>
<path d="M2793.12 916.717C2793.88 899.117 2794.17 879.448 2795.18 859.781C2798.63 792.297 2794.3 731.694 2756.79 652.134C2723.2 580.865 2653.8 539.935 2577.54 541.251C2506.98 542.468 2434.84 544.393 2374.09 507.045C2321.66 474.816 2276.14 455.899 2205.28 453.766C2140.31 451.811 2070.12 480.723 2016.95 515.119C1965.5 548.406 1924.2 595.892 1867.42 617.233C1815.96 636.58 1743.14 643.927 1700.17 639.479C1593.78 628.468 1510.5 528.939 1403.56 547.628C1322.47 561.8 1115.06 337.996 1068.19 561.289C992.304 919.644 391.779 705.914 335.947 765.456" stroke="url(#paint5_radial)"/>
<path d="M2807.23 898.003C2806.73 881.35 2805.69 862.235 2805.5 843.081C2804.86 777.481 2797.55 720.059 2758.42 638.273C2724.75 567.908 2656.01 527.808 2580.65 528.022C2509.63 528.223 2436.99 528.183 2374.76 493.207C2319.45 462.121 2271.15 448.917 2197.74 448.124C2131.44 447.408 2059.65 474.315 2005.68 506.508C1954.03 537.325 1913.14 583.335 1856.41 602.223C1803.77 619.749 1727.14 626.03 1685.35 621.78C1580.48 611.116 1497.61 513.646 1392.7 534.013C1308.4 550.379 1104.73 336.288 1057.86 554.378C981.818 904.517 381.724 687.966 326.643 748.826" stroke="url(#paint6_radial)"/>
<path d="M2821.33 879.288C2819.59 863.582 2817.22 845.031 2815.83 826.381C2811.1 762.694 2800.82 708.421 2760.05 624.413C2726.33 554.941 2658.21 515.655 2583.77 514.793C2512.26 513.964 2439.06 512.039 2375.43 479.368C2317.17 449.457 2266.15 441.916 2190.19 442.482C2122.57 442.986 2049.22 467.902 1994.42 497.898C1942.61 526.255 1902.01 570.723 1845.4 587.212C1791.52 602.903 1711.13 608.134 1670.54 604.082C1567.18 593.764 1484.73 498.53 1381.84 520.398C1294.29 539.004 1094.4 334.581 1047.53 547.466C971.332 889.391 371.668 670.019 317.339 732.196" stroke="url(#paint7_radial)"/>
<path d="M2835.43 860.573C2832.44 845.815 2828.74 827.836 2826.16 809.681C2817.36 747.933 2804.11 696.78 2761.67 610.552C2727.92 541.966 2660.41 503.476 2586.88 501.564C2514.88 499.692 2441.06 495.963 2376.1 465.529C2314.84 436.831 2261.17 434.897 2182.65 436.84C2113.7 438.547 2038.84 461.49 1983.15 489.287C1931.23 515.2 1890.82 558.052 1834.38 572.201C1779.21 586.033 1695.13 590.241 1655.72 586.383C1553.88 576.413 1471.85 483.572 1370.98 506.783C1280.16 527.679 1084.06 332.874 1037.2 540.555C960.847 874.265 361.613 652.071 308.035 715.566" stroke="url(#paint8_radial)"/>
<path d="M2849.53 841.859C2845.3 828.047 2840.28 810.648 2836.48 792.981C2823.64 733.197 2807.4 685.136 2763.3 596.692C2729.53 528.982 2662.6 491.27 2589.99 488.335C2517.49 485.404 2443 479.954 2376.76 451.69C2312.45 424.25 2256.18 427.861 2175.11 431.198C2104.83 434.09 2028.52 455.084 1971.88 480.676C1919.9 504.167 1879.58 545.316 1823.37 557.191C1766.84 569.132 1679.13 572.351 1640.9 568.684C1540.57 559.061 1458.99 468.753 1360.11 493.168C1266.01 516.403 1073.73 331.166 1026.87 533.644C950.361 859.139 351.558 634.124 298.73 698.936" stroke="url(#paint9_radial)"/>
<path d="M2863.63 823.144C2857.13 807.858 2851.51 792.211 2846.81 776.281C2829.95 718.481 2810.71 673.487 2764.92 582.831C2731.17 515.99 2664.78 479.039 2593.1 475.106C2520.1 471.1 2444.9 464.01 2377.43 437.852C2310.03 411.717 2251.19 420.81 2167.56 425.556C2095.96 429.619 2018.24 448.691 1960.62 472.065C1908.62 493.161 1868.29 532.512 1812.35 542.18C1754.42 552.193 1663.13 554.462 1626.09 550.986C1527.26 541.709 1446.14 454.061 1349.25 479.553C1251.85 505.179 1063.39 329.459 1016.54 526.733C939.875 844.013 341.503 616.176 289.427 682.306" stroke="url(#paint10_radial)"/>
<path d="M2877.73 804.43C2869.76 790.012 2862.88 775.021 2857.13 759.581C2836.3 703.78 2814.03 661.834 2766.55 568.971C2732.82 502.992 2666.96 466.782 2596.21 461.877C2522.7 456.78 2446.76 448.13 2378.1 424.013C2307.57 399.237 2246.21 413.743 2160.02 419.914C2087.1 425.135 2008.01 442.317 1949.35 463.455C1897.38 482.186 1856.96 519.639 1801.34 527.17C1741.96 535.209 1647.12 536.577 1611.27 533.287C1513.96 524.357 1433.31 439.48 1338.39 465.938C1237.69 494.009 1053.47 327.854 1006.2 519.822C930.06 829.052 331.447 598.229 280.122 665.676" stroke="url(#paint11_radial)"/>
<path d="M2891.83 785.715C2883.87 774.745 2874.93 759.116 2867.46 742.881C2842.69 689.084 2817.37 650.176 2768.18 555.111C2734.48 489.986 2669.14 454.5 2599.32 448.648C2525.29 442.443 2448.58 432.309 2378.77 410.175C2305.08 386.812 2241.22 406.662 2152.47 414.272C2078.23 420.638 1997.82 435.968 1938.09 454.844C1886.17 471.248 1845.6 506.696 1790.32 512.159C1729.46 518.174 1631.12 518.693 1596.46 515.588C1500.65 507.005 1420.49 425 1327.53 452.323C1223.52 482.894 1043.17 326.158 995.874 512.91C919.628 813.945 321.392 580.282 270.818 649.046" stroke="url(#paint12_radial)"/>
<path d="M2905.93 767C2896.72 756.977 2886.51 741.941 2877.78 726.181C2849.11 674.386 2820.71 638.512 2769.8 541.25C2736.16 476.974 2671.31 442.193 2602.44 435.419C2527.88 428.087 2450.39 416.545 2379.44 396.336C2302.58 374.442 2236.24 399.568 2144.93 408.63C2069.36 416.13 1987.68 429.652 1926.82 446.233C1875.01 460.35 1834.21 493.685 1779.31 497.148C1716.93 501.083 1615.11 500.813 1581.64 497.889C1487.34 489.653 1407.69 410.609 1316.67 438.708C1209.35 471.837 1032.87 324.462 985.542 505.999C909.195 798.837 311.337 562.334 261.514 632.416" stroke="url(#paint13_radial)"/>
<path d="M2920.03 748.285C2909.58 739.21 2898.09 724.763 2888.11 709.481C2855.58 659.679 2824.08 626.841 2771.43 527.39C2737.85 463.955 2673.48 429.861 2605.55 422.19C2530.46 413.712 2452.18 400.834 2380.11 382.497C2300.05 362.13 2231.25 392.461 2137.39 402.988C2060.49 411.612 1977.57 423.374 1915.55 437.622C1863.87 449.497 1822.8 480.607 1768.3 482.138C1704.38 483.933 1599.11 482.936 1566.83 480.191C1474.03 472.3 1394.9 396.299 1305.8 425.093C1195.19 460.84 1022.57 322.767 975.21 499.088C898.759 783.731 301.281 544.387 252.21 615.786" stroke="url(#paint14_radial)"/>
<path d="M2934.14 729.571C2922.43 721.443 2909.69 707.58 2898.43 692.781C2862.07 644.954 2827.45 615.164 2773.05 513.529C2739.55 450.931 2675.65 417.506 2608.66 408.961C2533.05 399.317 2453.96 385.17 2380.78 368.658C2297.52 349.874 2226.26 385.343 2129.84 397.346C2051.62 407.085 1967.49 417.14 1904.29 429.012C1852.77 438.689 1811.38 467.465 1757.28 467.127C1691.82 466.718 1583.1 465.062 1552.01 462.492C1460.71 454.948 1382.14 382.061 1294.94 411.477C1181.04 449.905 1012.26 321.072 964.879 492.177C888.322 768.626 291.226 526.439 242.906 599.156" stroke="url(#paint15_radial)"/>
<path d="M2948.24 710.856C2935.29 703.675 2921.29 690.39 2908.76 676.081C2868.59 630.208 2830.84 603.48 2774.68 499.669C2741.26 437.901 2677.82 405.127 2611.77 395.732C2535.63 384.902 2455.74 369.552 2381.44 354.82C2294.97 337.673 2221.26 378.213 2122.3 391.704C2042.75 402.549 1957.44 410.955 1893.02 420.401C1841.68 427.928 1799.96 454.263 1746.27 452.117C1679.25 449.438 1567.1 447.191 1537.2 444.793C1447.4 437.595 1369.39 367.888 1284.08 397.862C1166.91 439.034 1001.96 319.377 954.548 485.266C877.883 753.521 281.171 508.492 233.602 582.526" stroke="url(#paint16_radial)"/>
<path d="M2962.34 692.141C2948.14 685.908 2932.9 673.193 2919.09 659.381C2875.13 615.436 2834.25 591.789 2776.31 485.808C2742.99 424.866 2679.99 392.726 2614.88 382.504C2538.21 370.466 2457.52 353.974 2382.11 340.981C2292.43 325.527 2216.27 371.073 2114.76 386.062C2033.87 398.005 1947.41 404.825 1881.75 411.79C1830.61 417.216 1788.53 441.004 1735.25 437.106C1666.67 432.089 1551.09 429.323 1522.38 427.095C1434.08 420.243 1356.66 353.774 1273.22 384.247C1152.79 428.229 991.649 317.683 944.216 478.354C867.441 738.416 271.116 490.544 224.298 565.896" stroke="url(#paint17_radial)"/>
<path d="M2976.44 673.427C2961 668.14 2944.51 655.986 2929.41 642.681C2881.69 600.637 2837.67 580.089 2777.93 471.948C2744.72 411.826 2682.16 380.302 2617.99 369.274C2540.79 356.007 2459.3 338.433 2382.78 327.142C2289.88 313.433 2211.27 363.923 2107.21 380.42C2024.99 393.455 1937.39 398.751 1870.49 403.179C1819.55 406.551 1777.11 427.692 1724.24 422.095C1654.11 414.672 1535.09 411.459 1507.56 409.396C1420.76 402.889 1343.95 339.712 1262.36 370.632C1138.7 417.495 981.34 315.989 933.884 471.443C856.996 723.313 261.06 472.597 214.994 549.266" stroke="url(#paint18_radial)"/>
<path d="M2990.54 654.712C2973.86 650.373 2956.13 638.771 2939.74 625.981C2888.25 585.812 2841.1 568.381 2779.56 458.087C2746.46 398.781 2684.34 367.856 2621.11 356.046C2543.37 341.525 2461.08 322.927 2383.45 313.304C2287.34 301.39 2206.27 356.764 2099.67 374.778C2016.12 388.898 1927.38 392.737 1859.22 394.569C1808.5 395.932 1765.7 414.333 1713.22 407.085C1641.55 397.185 1519.08 393.599 1492.75 391.697C1407.44 385.536 1331.25 325.697 1251.5 357.017C1124.64 406.833 971.029 314.296 923.553 464.532C846.549 708.21 251.005 454.649 205.69 532.636" stroke="url(#paint19_radial)"/>
<path d="M3004.64 635.997C2986.71 632.606 2967.75 621.548 2950.06 609.281C2894.81 570.962 2844.55 556.663 2781.18 444.227C2748.21 385.732 2686.51 355.39 2624.22 342.817C2545.95 327.02 2462.87 307.45 2384.12 299.465C2284.81 289.395 2201.27 349.596 2092.13 369.136C2007.23 384.335 1917.37 386.784 1847.95 385.958C1797.44 385.357 1754.31 400.932 1702.21 392.074C1629.02 379.631 1503.07 375.743 1477.93 373.999C1394.12 368.183 1318.57 311.725 1240.63 343.402C1110.61 396.246 960.715 312.603 913.222 457.621C836.099 693.108 240.95 436.702 196.385 516.007" stroke="url(#paint20_radial)"/>
<path d="M3018.74 617.283C2999.57 614.838 2979.37 604.317 2960.39 592.581C2901.38 556.089 2848.02 544.936 2782.81 430.366C2749.97 372.677 2688.69 342.904 2627.33 329.588C2548.54 312.49 2464.67 292.001 2384.79 285.626C2282.28 277.446 2196.26 342.42 2084.58 363.494C1998.35 379.766 1907.35 380.892 1836.69 377.347C1786.38 374.824 1742.93 387.491 1691.2 377.064C1616.51 362.01 1487.06 357.891 1463.12 356.3C1380.8 350.83 1305.92 297.791 1229.77 329.787C1096.62 385.738 950.4 310.91 902.89 450.71C825.645 678.006 230.895 418.754 187.082 499.377" stroke="url(#paint21_radial)"/>
<path d="M3032.84 598.568C3012.42 597.071 2990.98 587.08 2970.71 575.881C2907.93 541.195 2851.51 533.199 2784.44 416.506C2751.74 359.619 2690.87 330.398 2630.44 316.359C2551.13 297.936 2466.49 276.577 2385.46 271.788C2279.76 265.541 2191.25 335.236 2077.04 357.852C1989.46 375.193 1897.31 375.06 1825.42 368.737C1775.31 364.328 1731.57 374.017 1680.18 362.053C1604.03 344.325 1471.06 340.044 1448.3 338.601C1367.47 333.476 1293.28 283.892 1218.91 316.172C1082.66 375.312 940.082 309.217 892.559 443.798C815.188 662.905 220.839 400.807 177.777 482.747" stroke="url(#paint22_radial)"/>
<path d="M3046.94 579.853C3025.28 579.303 3002.6 569.837 2981.04 559.181C2914.48 526.285 2855.01 521.451 2786.06 402.645C2753.51 346.557 2693.06 317.874 2633.55 303.13C2553.74 283.356 2468.31 261.174 2386.13 257.949C2277.26 253.677 2186.24 328.046 2069.5 352.21C1980.58 370.615 1887.25 369.287 1814.16 360.126C1764.22 353.867 1720.23 360.513 1669.17 347.042C1591.59 326.577 1455.05 322.201 1433.49 320.903C1354.14 316.123 1280.66 270.023 1208.05 302.557C1068.76 364.971 929.762 307.525 882.228 436.887C804.726 647.804 210.784 382.86 168.474 466.117" stroke="url(#paint23_radial)"/>
<path d="M3061.05 561.139C3038.13 561.536 3014.21 552.588 2991.36 542.481C2921.02 511.36 2858.53 509.692 2787.69 388.785C2755.29 333.49 2695.26 305.331 2636.66 289.901C2556.35 268.75 2470.15 245.792 2386.79 244.11C2274.77 241.851 2181.22 320.848 2061.95 346.568C1971.69 366.032 1877.17 363.57 1802.89 351.515C1753.11 343.437 1708.92 346.984 1658.15 332.032C1579.18 308.772 1439.04 304.364 1418.67 303.204C1340.81 298.769 1268.05 256.182 1197.19 288.942C1054.9 354.72 919.438 305.833 871.896 429.976C794.259 632.703 200.729 364.912 159.169 449.487" stroke="url(#paint24_radial)"/>
<path d="M3075.15 542.424C3050.99 543.768 3025.82 535.336 3001.69 525.781C2927.56 496.422 2862.07 497.921 2789.31 374.924C2757.07 320.42 2697.46 292.772 2639.77 276.672C2558.96 254.117 2472 230.426 2387.46 230.271C2272.29 230.06 2176.21 313.645 2054.41 340.926C1962.79 361.446 1867.06 357.905 1791.62 342.904C1741.99 333.034 1697.63 333.434 1647.14 317.021C1566.81 290.912 1423.03 286.532 1403.85 285.505C1327.48 281.415 1255.47 242.365 1186.32 275.327C1041.09 344.561 909.111 304.14 861.564 423.065C783.787 617.603 190.673 346.965 149.865 432.857" stroke="url(#paint25_radial)"/>
<path d="M3089.25 523.709C3063.85 526.001 3037.42 518.081 3012.02 509.081C2934.08 481.476 2865.63 486.138 2790.94 361.064C2758.86 307.345 2699.67 280.196 2642.89 263.443C2561.59 239.456 2473.86 215.077 2388.13 216.433C2269.83 218.304 2171.19 306.435 2046.87 335.284C1953.9 356.857 1856.91 352.289 1780.36 334.294C1730.84 322.654 1686.37 319.866 1636.12 302.01C1554.49 273 1407.02 268.705 1389.04 267.806C1314.14 264.061 1242.9 228.57 1175.46 261.712C1027.35 334.499 898.78 302.448 851.233 416.153C773.309 602.502 180.618 329.017 140.561 416.227" stroke="url(#paint26_radial)"/>
<path d="M3103.35 504.995C3076.7 508.233 3049.03 500.823 3022.34 492.381C2940.59 466.521 2869.21 474.342 2792.57 347.203C2760.65 294.268 2701.88 267.605 2646 250.214C2564.23 224.768 2475.74 199.741 2388.8 202.594C2267.38 206.578 2166.16 299.219 2039.32 329.642C1945 352.264 1846.73 346.716 1769.09 325.683C1719.66 312.292 1675.14 306.284 1625.11 287C1542.21 255.043 1391.01 250.885 1374.22 250.108C1300.8 246.707 1230.36 214.794 1164.6 248.096C1013.67 324.538 888.445 300.755 840.902 409.242C762.825 587.401 170.563 311.07 131.257 399.597" stroke="url(#paint27_radial)"/>
<path d="M3117.45 486.28C3089.56 490.466 3060.63 483.563 3032.67 475.681C2947.09 451.561 2872.81 462.533 2794.19 333.343C2762.45 281.186 2704.1 255 2649.11 236.985C2566.89 210.052 2477.63 184.418 2389.47 188.756C2264.95 194.882 2161.13 291.999 2031.78 324C1936.11 347.668 1836.5 341.182 1757.82 317.072C1708.46 301.947 1663.93 292.692 1614.1 271.989C1529.98 237.043 1374.99 233.071 1359.41 232.409C1287.46 229.353 1217.83 201.034 1153.74 234.482C1000.06 314.682 878.106 299.062 830.57 402.331C752.333 572.299 160.508 293.122 121.953 382.967" stroke="url(#paint28_radial)"/>
<path d="M3131.55 467.565C3102.41 472.699 3072.23 466.301 3042.99 458.981C2953.59 436.595 2876.42 450.708 2795.82 319.483C2764.26 268.101 2706.34 242.381 2652.22 223.756C2569.56 195.307 2479.53 169.105 2390.14 174.917C2262.54 183.212 2156.1 284.773 2024.23 318.358C1927.21 343.069 1826.24 335.682 1746.56 308.461C1697.24 291.613 1652.75 279.091 1603.08 256.979C1517.79 219.004 1358.98 215.264 1344.59 214.71C1274.11 211.998 1205.33 187.288 1142.88 220.866C986.523 304.934 867.761 297.367 820.239 395.42C741.833 557.195 150.452 275.175 112.649 366.337" stroke="url(#paint29_radial)"/>
<path d="M3145.65 448.851C3115.27 454.931 3083.82 449.038 3053.32 442.281C2960.07 421.626 2880.06 438.869 2797.44 305.622C2766.06 255.013 2708.58 229.749 2655.33 210.527C2572.25 180.532 2481.45 153.802 2390.81 161.078C2260.14 171.567 2151.07 277.542 2016.69 312.716C1918.3 338.468 1815.94 330.211 1735.29 299.851C1685.99 281.288 1641.6 265.485 1592.07 241.968C1505.65 200.932 1342.97 197.464 1329.78 197.012C1260.76 194.643 1192.84 173.554 1132.02 207.251C973.074 295.301 857.411 295.67 809.907 388.509C731.324 542.089 140.397 257.227 103.345 349.707" stroke="url(#paint30_radial)"/>
<path d="M3159.75 430.136C3128.12 437.164 3095.41 431.774 3063.64 425.581C2966.55 406.655 2883.73 427.015 2799.07 291.762C2767.87 241.922 2710.83 217.105 2658.44 197.298C2574.95 165.729 2483.38 138.507 2391.47 147.239C2257.75 159.944 2146.04 270.307 2009.15 307.074C1909.4 333.864 1805.59 324.765 1724.02 291.24C1674.71 270.97 1630.47 251.876 1581.05 226.957C1493.55 182.831 1326.96 179.672 1314.96 179.313C1247.41 177.288 1180.38 159.83 1121.15 193.636C959.715 285.785 847.053 293.972 799.576 381.597C720.803 526.98 130.342 239.28 94.0405 333.077" stroke="url(#paint31_radial)"/>
<path d="M3173.85 411.421C3140.98 419.396 3107 414.51 3073.97 408.881C2973.03 391.682 2887.41 415.143 2800.69 277.901C2769.69 228.827 2713.09 204.451 2661.56 184.07C2577.67 150.896 2485.33 123.22 2392.14 133.401C2255.39 148.342 2141 263.068 2001.6 301.432C1900.49 329.258 1795.21 319.338 1712.76 282.629C1663.4 260.654 1619.37 238.266 1570.04 211.947C1481.5 164.705 1310.94 161.889 1300.15 161.614C1234.05 159.934 1167.94 146.113 1110.29 180.021C946.454 276.391 836.69 292.271 789.244 374.686C710.272 511.865 120.287 221.332 84.7368 316.447" stroke="url(#paint32_radial)"/>
<path d="M3187.95 392.706C3153.84 401.629 3118.59 397.245 3084.29 392.181C2979.49 376.707 2891.12 403.255 2802.32 264.041C2771.5 215.729 2715.36 191.786 2664.67 170.841C2580.42 136.034 2487.29 107.938 2392.81 119.562C2253.03 136.759 2135.96 255.825 1994.06 295.79C1891.59 324.65 1784.78 313.926 1701.49 274.018C1652.07 250.34 1608.29 224.656 1559.02 196.936C1469.49 146.557 1294.93 144.114 1285.33 143.915C1220.69 142.579 1155.52 132.401 1099.43 166.406C933.298 267.124 826.318 290.566 778.913 367.775C699.728 496.745 110.231 203.385 75.4324 299.817" stroke="url(#paint33_radial)"/>
<path d="M3202.06 373.992C3166.69 383.861 3130.18 379.981 3094.62 375.481C2985.95 361.732 2894.86 391.348 2803.95 250.18C2773.32 202.628 2717.65 179.112 2667.78 157.612C2583.19 121.142 2489.26 92.6625 2393.48 105.723C2250.7 125.194 2130.92 248.579 1986.52 290.148C1882.68 320.041 1774.32 308.525 1690.23 265.408C1640.72 240.026 1597.24 211.049 1548.01 181.926C1457.53 128.392 1278.91 126.349 1270.51 126.217C1207.33 125.223 1143.12 118.693 1088.57 152.791C920.256 257.987 815.938 288.856 768.582 360.864C689.17 481.615 100.176 185.438 66.1287 283.187" stroke="url(#paint34_radial)"/>
<path d="M3216.16 355.277C3179.55 366.094 3141.76 362.716 3104.95 358.781C2992.4 346.756 2898.62 379.423 2805.57 236.32C2775.15 189.523 2719.95 166.43 2670.89 144.383C2585.98 106.22 2491.24 77.3914 2394.15 91.8846C2248.37 113.645 2125.87 241.328 1978.97 284.505C1873.76 315.429 1763.82 303.132 1678.96 256.797C1629.35 229.708 1586.21 197.446 1537 166.915C1445.6 110.213 1262.9 108.594 1255.7 108.518C1193.95 107.868 1130.75 104.986 1077.71 139.176C907.334 248.984 805.548 287.138 758.25 353.953C678.595 466.474 90.1209 167.49 56.8243 266.557" stroke="url(#paint35_radial)"/>
<path d="M3230.26 336.562C3192.4 348.326 3153.35 345.45 3115.27 342.081C2998.85 331.781 2902.4 367.477 2807.2 222.459C2776.97 176.416 2722.26 153.74 2674 131.154C2588.79 91.269 2493.24 62.1244 2394.82 78.0458C2246.06 102.11 2120.83 234.075 1971.43 278.863C1864.85 310.815 1753.29 297.743 1667.69 248.186C1617.95 219.387 1575.2 183.847 1525.98 151.904C1433.72 92.0227 1246.88 90.8497 1240.88 90.8192C1180.58 90.5129 1118.41 91.2789 1066.85 125.561C894.544 240.12 795.149 285.412 747.919 347.041C668.005 451.317 80.0659 149.543 47.5205 249.927" stroke="url(#paint36_radial)"/>
<path d="M3244.36 317.848C3205.26 330.559 3164.93 328.186 3125.6 325.382C3005.3 316.805 2906.21 355.511 2808.82 208.599C2778.8 163.305 2724.58 141.045 2677.11 117.925C2591.64 76.2891 2495.24 46.861 2395.49 64.2073C2243.77 90.5888 2115.78 226.818 1963.89 273.222C1855.94 306.201 1742.73 292.355 1656.43 239.576C1606.53 209.061 1564.21 170.255 1514.97 136.894C1421.87 73.8246 1230.87 73.1176 1226.07 73.1207C1167.2 73.1579 1106.08 77.5689 1055.98 111.946C881.893 231.397 784.74 283.674 737.587 340.13C657.397 436.141 70.0105 131.595 38.2163 233.297" stroke="url(#paint37_radial)"/>
<path d="M3258.46 299.133C3218.12 312.792 3176.51 310.921 3135.92 308.681C3011.74 301.83 2910.05 343.522 2810.45 194.738C2780.63 150.191 2726.91 128.344 2680.23 104.696C2594.51 61.2801 2497.26 31.6003 2396.15 50.3685C2241.49 79.0794 2110.72 219.558 1956.34 267.579C1847.02 301.585 1732.14 286.966 1645.16 230.965C1595.09 198.729 1553.25 156.668 1503.95 121.883C1410.06 55.6209 1214.85 55.398 1211.25 55.4218C1153.81 55.8025 1093.79 63.8539 1045.12 98.3305C869.392 222.818 774.322 281.921 727.256 333.219C646.772 420.938 59.9555 113.648 28.9125 216.667" stroke="url(#paint38_radial)"/>
<path d="M3272.56 280.418C3230.97 295.024 3188.1 293.591 3146.25 291.981C3018.19 286.655 2913.92 331.511 2812.08 180.878C2782.46 137.074 2729.26 115.638 2683.34 91.4671C2597.41 46.243 2499.29 16.3423 2396.82 36.5299C2239.22 67.5812 2105.59 212.042 1948.8 261.937C1838.05 296.788 1721.52 281.575 1633.89 222.354C1583.64 188.391 1542.3 143.089 1492.94 106.872C1398.28 37.4143 1198.84 37.6922 1196.44 37.7232C1140.42 38.4474 1081.52 50.1325 1034.26 84.7156C857.05 214.386 763.895 280.15 716.924 326.308C636.131 405.703 49.9 95.7004 19.6082 200.037" stroke="url(#paint39_radial)"/>
<path d="M3286.66 261.704C3243.83 277.257 3199.67 276.36 3156.57 275.281C3024.61 271.782 2917.82 319.475 2813.7 167.017C2784.29 123.955 2731.63 102.929 2686.45 78.2381C2600.34 31.1781 2501.32 1.08622 2397.49 22.6912C2236.96 56.093 2100.57 204.902 1941.26 256.295C1829.16 292.258 1710.87 276.178 1622.63 213.743C1572.17 178.045 1531.37 129.517 1481.92 91.8618C1386.53 19.2067 1182.82 20.001 1181.62 20.0245C1127.01 21.0922 1069.28 36.402 1023.4 71.1004C844.878 206.102 753.461 278.355 706.592 319.397C625.477 390.427 39.8444 77.7529 10.3037 183.407" stroke="url(#paint40_radial)"/>
<path d="M3300.76 242.989C3256.68 259.489 3211.25 259.128 3166.9 258.582C3031.04 256.908 2921.76 307.415 2815.33 153.157C2786.13 110.832 2734.01 90.2169 2689.56 65.0092C2603.3 16.0864 2503.37 -14.1682 2398.16 8.85251C2234.72 44.6138 2095.56 197.762 1933.71 250.653C1820.27 287.728 1700.21 270.774 1611.36 205.133C1560.68 167.692 1520.45 115.954 1470.91 76.8512C1374.81 1 1166.8 2.32579 1166.8 2.32579C1114.3 11.0385 1057.07 22.6607 1012.54 57.4853C832.885 197.967 743.026 276.532 696.261 312.485C614.817 375.1 29.7895 59.8054 1 166.777" stroke="url(#paint41_radial)"/>
</g>
<defs>
<radialGradient id="paint0_radial" cx="0" cy="0" r="1" gradientUnits="userSpaceOnUse" gradientTransform="translate(1574.52 745.546) rotate(90) scale(264.744 1192.05)">
<stop stop-color="#0E090F"/>
<stop offset="1" stop-color="white"/>
</radialGradient>
<radialGradient id="paint1_radial" cx="0" cy="0" r="1" gradientUnits="userSpaceOnUse" gradientTransform="translate(1572.19 733.511) rotate(90) scale(258.065 1199.02)">
<stop stop-color="#0E090F"/>
<stop offset="1" stop-color="white"/>
</radialGradient>
<radialGradient id="paint2_radial" cx="0" cy="0" r="1" gradientUnits="userSpaceOnUse" gradientTransform="translate(1570.1 721.46) rotate(90) scale(251.402 1206.24)">
<stop stop-color="#0E090F"/>
<stop offset="1" stop-color="white"/>
</radialGradient>
<radialGradient id="paint3_radial" cx="0" cy="0" r="1" gradientUnits="userSpaceOnUse" gradientTransform="translate(1568.3 709.392) rotate(90) scale(244.755 1213.75)">
<stop stop-color="#0E090F"/>
<stop offset="1" stop-color="white"/>
</radialGradient>
<radialGradient id="paint4_radial" cx="0" cy="0" r="1" gradientUnits="userSpaceOnUse" gradientTransform="translate(1566.9 697.305) rotate(90) scale(238.127 1221.65)">
<stop stop-color="#0E090F"/>
<stop offset="1" stop-color="white"/>
</radialGradient>
<radialGradient id="paint5_radial" cx="0" cy="0" r="1" gradientUnits="userSpaceOnUse" gradientTransform="translate(1566.04 685.195) rotate(90) scale(231.522 1230.1)">
<stop stop-color="#0E090F"/>
<stop offset="1" stop-color="white"/>
</radialGradient>
<radialGradient id="paint6_radial" cx="0" cy="0" r="1" gradientUnits="userSpaceOnUse" gradientTransform="translate(1566.93 673.056) rotate(90) scale(224.946 1240.29)">
<stop stop-color="#0E090F"/>
<stop offset="1" stop-color="white"/>
</radialGradient>
<radialGradient id="paint7_radial" cx="0" cy="0" r="1" gradientUnits="userSpaceOnUse" gradientTransform="translate(1569.33 660.87) rotate(90) scale(218.417 1251.99)">
<stop stop-color="#0E090F"/>
<stop offset="1" stop-color="white"/>
</radialGradient>
<radialGradient id="paint8_radial" cx="0" cy="0" r="1" gradientUnits="userSpaceOnUse" gradientTransform="translate(1571.73 648.435) rotate(90) scale(212.138 1263.7)">
<stop stop-color="#0E090F"/>
<stop offset="1" stop-color="white"/>
</radialGradient>
<radialGradient id="paint9_radial" cx="0" cy="0" r="1" gradientUnits="userSpaceOnUse" gradientTransform="translate(1574.13 635.394) rotate(90) scale(206.464 1275.4)">
<stop stop-color="#0E090F"/>
<stop offset="1" stop-color="white"/>
</radialGradient>
<radialGradient id="paint10_radial" cx="0" cy="0" r="1" gradientUnits="userSpaceOnUse" gradientTransform="translate(1576.53 621.618) rotate(90) scale(201.526 1287.1)">
<stop stop-color="#0E090F"/>
<stop offset="1" stop-color="white"/>
</radialGradient>
<radialGradient id="paint11_radial" cx="0" cy="0" r="1" gradientUnits="userSpaceOnUse" gradientTransform="translate(1578.93 607.242) rotate(90) scale(197.188 1298.8)">
<stop stop-color="#0E090F"/>
<stop offset="1" stop-color="white"/>
</radialGradient>
<radialGradient id="paint12_radial" cx="0" cy="0" r="1" gradientUnits="userSpaceOnUse" gradientTransform="translate(1581.33 592.431) rotate(90) scale(193.284 1310.51)">
<stop stop-color="#0E090F"/>
<stop offset="1" stop-color="white"/>
</radialGradient>
<radialGradient id="paint13_radial" cx="0" cy="0" r="1" gradientUnits="userSpaceOnUse" gradientTransform="translate(1583.72 577.306) rotate(90) scale(189.694 1322.21)">
<stop stop-color="#0E090F"/>
<stop offset="1" stop-color="white"/>
</radialGradient>
<radialGradient id="paint14_radial" cx="0" cy="0" r="1" gradientUnits="userSpaceOnUse" gradientTransform="translate(1586.12 561.952) rotate(90) scale(186.333 1333.91)">
<stop stop-color="#0E090F"/>
<stop offset="1" stop-color="white"/>
</radialGradient>
<radialGradient id="paint15_radial" cx="0" cy="0" r="1" gradientUnits="userSpaceOnUse" gradientTransform="translate(1588.52 546.423) rotate(90) scale(183.148 1345.61)">
<stop stop-color="#0E090F"/>
<stop offset="1" stop-color="white"/>
</radialGradient>
<radialGradient id="paint16_radial" cx="0" cy="0" r="1" gradientUnits="userSpaceOnUse" gradientTransform="translate(1590.92 530.758) rotate(90) scale(180.098 1357.32)">
<stop stop-color="#0E090F"/>
<stop offset="1" stop-color="white"/>
</radialGradient>
<radialGradient id="paint17_radial" cx="0" cy="0" r="1" gradientUnits="userSpaceOnUse" gradientTransform="translate(1593.32 514.983) rotate(90) scale(177.158 1369.02)">
<stop stop-color="#0E090F"/>
<stop offset="1" stop-color="white"/>
</radialGradient>
<radialGradient id="paint18_radial" cx="0" cy="0" r="1" gradientUnits="userSpaceOnUse" gradientTransform="translate(1595.72 499.118) rotate(90) scale(174.309 1380.72)">
<stop stop-color="#0E090F"/>
<stop offset="1" stop-color="white"/>
</radialGradient>
<radialGradient id="paint19_radial" cx="0" cy="0" r="1" gradientUnits="userSpaceOnUse" gradientTransform="translate(1598.11 483.176) rotate(90) scale(171.536 1392.43)">
<stop stop-color="#0E090F"/>
<stop offset="1" stop-color="white"/>
</radialGradient>
<radialGradient id="paint20_radial" cx="0" cy="0" r="1" gradientUnits="userSpaceOnUse" gradientTransform="translate(1600.51 467.168) rotate(90) scale(168.83 1404.13)">
<stop stop-color="#0E090F"/>
<stop offset="1" stop-color="white"/>
</radialGradient>
<radialGradient id="paint21_radial" cx="0" cy="0" r="1" gradientUnits="userSpaceOnUse" gradientTransform="translate(1602.91 451.101) rotate(90) scale(166.182 1415.83)">
<stop stop-color="#0E090F"/>
<stop offset="1" stop-color="white"/>
</radialGradient>
<radialGradient id="paint22_radial" cx="0" cy="0" r="1" gradientUnits="userSpaceOnUse" gradientTransform="translate(1605.31 434.981) rotate(90) scale(163.587 1427.53)">
<stop stop-color="#0E090F"/>
<stop offset="1" stop-color="white"/>
</radialGradient>
<radialGradient id="paint23_radial" cx="0" cy="0" r="1" gradientUnits="userSpaceOnUse" gradientTransform="translate(1607.71 418.813) rotate(90) scale(161.041 1439.24)">
<stop stop-color="#0E090F"/>
<stop offset="1" stop-color="white"/>
</radialGradient>
<radialGradient id="paint24_radial" cx="0" cy="0" r="1" gradientUnits="userSpaceOnUse" gradientTransform="translate(1610.11 402.607) rotate(90) scale(158.544 1450.94)">
<stop stop-color="#0E090F"/>
<stop offset="1" stop-color="white"/>
</radialGradient>
<radialGradient id="paint25_radial" cx="0" cy="0" r="1" gradientUnits="userSpaceOnUse" gradientTransform="translate(1612.51 386.418) rotate(90) scale(156.147 1462.64)">
<stop stop-color="#0E090F"/>
<stop offset="1" stop-color="white"/>
</radialGradient>
<radialGradient id="paint26_radial" cx="0" cy="0" r="1" gradientUnits="userSpaceOnUse" gradientTransform="translate(1614.9 370.244) rotate(90) scale(153.865 1474.34)">
<stop stop-color="#0E090F"/>
<stop offset="1" stop-color="white"/>
</radialGradient>
<radialGradient id="paint27_radial" cx="0" cy="0" r="1" gradientUnits="userSpaceOnUse" gradientTransform="translate(1617.3 354.071) rotate(90) scale(151.7 1486.05)">
<stop stop-color="#0E090F"/>
<stop offset="1" stop-color="white"/>
</radialGradient>
<radialGradient id="paint28_radial" cx="0" cy="0" r="1" gradientUnits="userSpaceOnUse" gradientTransform="translate(1619.7 337.909) rotate(90) scale(149.635 1497.75)">
<stop stop-color="#0E090F"/>
<stop offset="1" stop-color="white"/>
</radialGradient>
<radialGradient id="paint29_radial" cx="0" cy="0" r="1" gradientUnits="userSpaceOnUse" gradientTransform="translate(1622.1 321.76) rotate(90) scale(147.659 1509.45)">
<stop stop-color="#0E090F"/>
<stop offset="1" stop-color="white"/>
</radialGradient>
<radialGradient id="paint30_radial" cx="0" cy="0" r="1" gradientUnits="userSpaceOnUse" gradientTransform="translate(1624.5 305.63) rotate(90) scale(145.761 1521.15)">
<stop stop-color="#0E090F"/>
<stop offset="1" stop-color="white"/>
</radialGradient>
<radialGradient id="paint31_radial" cx="0" cy="0" r="1" gradientUnits="userSpaceOnUse" gradientTransform="translate(1626.9 289.521) rotate(90) scale(143.934 1532.86)">
<stop stop-color="#0E090F"/>
<stop offset="1" stop-color="white"/>
</radialGradient>
<radialGradient id="paint32_radial" cx="0" cy="0" r="1" gradientUnits="userSpaceOnUse" gradientTransform="translate(1629.3 273.434) rotate(90) scale(142.173 1544.56)">
<stop stop-color="#0E090F"/>
<stop offset="1" stop-color="white"/>
</radialGradient>
<radialGradient id="paint33_radial" cx="0" cy="0" r="1" gradientUnits="userSpaceOnUse" gradientTransform="translate(1631.69 259.015) rotate(90) scale(142.118 1556.26)">
<stop stop-color="#0E090F"/>
<stop offset="1" stop-color="white"/>
</radialGradient>
<radialGradient id="paint34_radial" cx="0" cy="0" r="1" gradientUnits="userSpaceOnUse" gradientTransform="translate(1634.09 246.399) rotate(90) scale(143.9 1567.96)">
<stop stop-color="#0E090F"/>
<stop offset="1" stop-color="white"/>
</radialGradient>
<radialGradient id="paint35_radial" cx="0" cy="0" r="1" gradientUnits="userSpaceOnUse" gradientTransform="translate(1636.49 233.876) rotate(90) scale(145.805 1579.67)">
<stop stop-color="#0E090F"/>
<stop offset="1" stop-color="white"/>
</radialGradient>
<radialGradient id="paint36_radial" cx="0" cy="0" r="1" gradientUnits="userSpaceOnUse" gradientTransform="translate(1638.89 221.451) rotate(90) scale(147.835 1591.37)">
<stop stop-color="#0E090F"/>
<stop offset="1" stop-color="white"/>
</radialGradient>
<radialGradient id="paint37_radial" cx="0" cy="0" r="1" gradientUnits="userSpaceOnUse" gradientTransform="translate(1641.29 209.126) rotate(90) scale(149.99 1603.07)">
<stop stop-color="#0E090F"/>
<stop offset="1" stop-color="white"/>
</radialGradient>
<radialGradient id="paint38_radial" cx="0" cy="0" r="1" gradientUnits="userSpaceOnUse" gradientTransform="translate(1643.69 196.905) rotate(90) scale(152.272 1614.77)">
<stop stop-color="#0E090F"/>
<stop offset="1" stop-color="white"/>
</radialGradient>
<radialGradient id="paint39_radial" cx="0" cy="0" r="1" gradientUnits="userSpaceOnUse" gradientTransform="translate(1646.08 184.791) rotate(90) scale(154.682 1626.48)">
<stop stop-color="#0E090F"/>
<stop offset="1" stop-color="white"/>
</radialGradient>
<radialGradient id="paint40_radial" cx="0" cy="0" r="1" gradientUnits="userSpaceOnUse" gradientTransform="translate(1648.48 172.787) rotate(90) scale(157.223 1638.18)">
<stop stop-color="#0E090F"/>
<stop offset="1" stop-color="white"/>
</radialGradient>
<radialGradient id="paint41_radial" cx="0" cy="0" r="1" gradientUnits="userSpaceOnUse" gradientTransform="translate(1650.88 160.897) rotate(90) scale(159.897 1649.88)">
<stop stop-color="#0E090F"/>
<stop offset="1" stop-color="white"/>
</radialGradient>
</defs>
</svg>
